<svg height="464pt" viewBox="0 -14 464 463" width="464pt" xmlns="http://www.w3.org/2000/svg"><g fill="#d0ecf4"><path d="m282.480469 163.980469 181.519531 102.597656v40l-186.160156-40.46875"/><path d="m181.152344 164.1875-181.152344 102.390625v40l185.953125-40.421875"/><path d="m272.855469 371.148438 71.144531 47.429687v16l-98.496094-8.207031"/><path d="m191.105469 371.179688-71.105469 47.398437v16l98.496094-8.207031"/></g><path d="m178.640625 110.898438 12 254.328124c.898437 19.046876 7.988281 37.277344 20.191406 51.929688l9.71875 11.65625c2.839844 3.402344 7.042969 5.371094 11.472657 5.371094 4.433593 0 8.636718-1.96875 11.472656-5.371094l9.664062-11.601562c12.242188-14.679688 19.335938-32.96875 20.199219-52.0625l11.777344-259.121094c.769531-37.335938-13.726563-73.367188-40.136719-99.769532l-1.28125-1.277343c-5.808594-5.8125-15.171875-5.992188-21.199219-.410157-29.511719 27.292969-45.554687 66.167969-43.878906 106.328126zm0 0" fill="#92d7e7"/><path d="m232 410.578125c-4.417969 0-8-3.582031-8-8v-88c0-4.417969 3.582031-8 8-8s8 3.582031 8 8v88c0 4.417969-3.582031 8-8 8zm0 0" fill="#d0ecf4"/><path d="m256 90.578125c-2.519531 0-4.890625-1.183594-6.398438-3.199219l-4.800781-6.398437c-3.128906-3.859375-7.832031-6.101563-12.800781-6.101563s-9.671875 2.242188-12.800781 6.101563l-4.800781 6.398437c-2.648438 3.535156-7.664063 4.25-11.199219 1.601563-3.535157-2.652344-4.25-7.667969-1.597657-11.199219l4.796876-6.402344c6.042968-8.058594 15.53125-12.800781 25.601562-12.800781s19.558594 4.742187 25.601562 12.800781l4.796876 6.402344c1.820312 2.421875 2.113281 5.664062.757812 8.375s-4.125 4.421875-7.15625 4.421875zm0 0" fill="#0378a3"/></svg>